# xmcd CD database file generated by OrangeCD 5.2
#
# Track frame offsets:
#	150
#	18790
#	41132
#	55580
#	73290
#	91970
#	121820
#	140640
#	165405
#	182747
#	201582
#
# Disc length: 2949 seconds
#
# Revision: 3
# Processed by: cddbd v1.5.1PL0 Copyright (c) Steve Scherf et al.
# Submitted via: OrangeCD 5.2
#
DISCID=990b830b
DTITLE=Various Artist - L.A. Blues Authority Vol  4  Fit For A King
DYEAR=1993
DGENRE=Blues Compilation
TTITLE0=Leslie West - Crosscut Saw  
TTITLE1=Craig Erickson - Floodin' In California 
TTITLE2=Steve Hunter - Night Stomp  
TTITLE3=Kevin Russell - Oh Pretty Woman 
TTITLE4=Tony Spinner - Down Don't Bother Me  
TTITLE5=Pat Travers - The Sky Is Crying  
TTITLE6=Jon Butcher - Killing Floor  
TTITLE7=Frank Marino - I'll Play The Blues For You  
TTITLE8=Rick Derringer - Born Under A Bad Sign  
TTITLE9=Ricky Medlocke - Wrapped Up In Love, Again 
TTITLE10=L.A. Blues Authority Band - Albert's Jam 
EXTD=
EXTT0=
EXTT1=
EXTT2=
EXTT3=
EXTT4=
EXTT5=
EXTT6=
EXTT7=
EXTT8=
EXTT9=
EXTT10=
PLAYORDER=
